# xmcd
#
# Track frame offsets: 
#        175
#        15412
#        32262
#        51065
#        75387
#        99125
#        122220
#        138312
#        156750
#        170287
#        191362
#        208067
#        224297
#        238155
#        253317
#
# Disc length: 3553 seconds
#
# Revision: 0
# Processed by: cddbd v1.5.1PL0 Copyright (c) Steve Scherf et al.
# Submitted via: ExactAudioCopy v0.95a3
#
DISCID=bd0ddf0f
DTITLE=Олег И Родион Газмановы - Эскадрон
DYEAR=1993
DGENRE=Pop
TTITLE0=Эскадрон
TTITLE1=Свежий Ветер
TTITLE2=Путана
TTITLE3=Есаул
TTITLE4=Дождись
TTITLE5=Ламбада
TTITLE6=Улетаю
TTITLE7=Моя Девочка
TTITLE8=Хобби
TTITLE9=Маугли
TTITLE10=Трубочист
TTITLE11=Светлячок
TTITLE12=Ямайка
TTITLE13=Люси
TTITLE14=Пианино
EXTD=
EXTT0=
EXTT1=
EXTT2=
EXTT3=
EXTT4=
EXTT5=
EXTT6=
EXTT7=
EXTT8=
EXTT9=
EXTT10=
EXTT11=
EXTT12=
EXTT13=
EXTT14=
PLAYORDER=
